<svg width="375" height="350" viewBox="0 0 375 350" fill="none" xmlns="http://www.w3.org/2000/svg">
<rect width="375" height="350" fill="#0EA5E9"/>
<path d="M143 168H170C174.774 168 179.352 169.967 182.728 173.467C186.104 176.968 188 181.716 188 186.667V252C188 248.287 186.578 244.726 184.046 242.1C181.514 239.475 178.08 238 174.5 238H143V168Z" stroke="white" stroke-width="6" stroke-linecap="round" stroke-linejoin="round"/>
<path d="M233 168H206C201.226 168 196.648 169.967 193.272 173.467C189.896 176.968 188 181.716 188 186.667V252C188 248.287 189.422 244.726 191.954 242.1C194.486 239.475 197.92 238 201.5 238H233V168Z" stroke="white" stroke-width="6" stroke-linecap="round" stroke-linejoin="round"/>
<path fill-rule="evenodd" clip-rule="evenodd" d="M70.253 182.721C70.6441 182.331 70.6449 181.698 70.2549 181.307C69.8649 180.916 69.2318 180.915 68.8407 181.305L66.7289 183.411L64.617 181.305C64.226 180.915 63.5928 180.916 63.2028 181.307C62.8128 181.698 62.8137 182.331 63.2047 182.721L65.3127 184.823L63.2047 186.926C62.8137 187.316 62.8128 187.949 63.2028 188.34C63.5928 188.731 64.226 188.732 64.617 188.342L66.7289 186.236L68.8407 188.342C69.2318 188.732 69.8649 188.731 70.2549 188.34C70.6449 187.949 70.6441 187.316 70.253 186.926L68.145 184.823L70.253 182.721Z" fill="#BAE6FD"/>
<path d="M306.156 181.674C303.487 181.674 301.313 179.515 301.313 176.843C301.313 174.181 303.478 172.012 306.156 172.012C308.825 172.012 311 174.172 311 176.843C310.991 179.515 308.825 181.674 306.156 181.674Z" stroke="#BAE6FD" stroke-width="2" stroke-miterlimit="10" stroke-linecap="round" stroke-linejoin="round"/>
<path d="M107.844 98.6647C105.175 98.6647 103 96.5051 103 93.8335C103 91.1713 105.165 89.0023 107.844 89.0023C110.513 89.0023 112.687 91.1619 112.687 93.8335C112.678 96.5051 110.513 98.6647 107.844 98.6647Z" stroke="#BAE6FD" stroke-width="2" stroke-miterlimit="10" stroke-linecap="round" stroke-linejoin="round"/>
<path d="M143.652 298L138 303.621" stroke="#BAE6FD" stroke-width="2" stroke-miterlimit="10" stroke-linecap="round" stroke-linejoin="round"/>
<path d="M143.652 303.621L138 298" stroke="#BAE6FD" stroke-width="2" stroke-miterlimit="10" stroke-linecap="round" stroke-linejoin="round"/>
<path d="M287.573 292.711C284.615 292.711 282.216 290.319 282.216 287.368C282.216 284.417 284.615 282.025 287.573 282.025C290.532 282.025 292.93 284.417 292.93 287.368C292.93 290.309 290.532 292.711 287.573 292.711Z" stroke="#BAE6FD" stroke-width="2" stroke-miterlimit="10" stroke-linecap="round" stroke-linejoin="round"/>
<path d="M283.878 291.23L280.089 294.999" stroke="#BAE6FD" stroke-width="2" stroke-miterlimit="10" stroke-linecap="round" stroke-linejoin="round"/>
<path d="M78.2448 263.772C78.2448 264.739 79.0302 265.522 79.999 265.522C80.9679 265.522 81.7533 264.739 81.7533 263.772C81.7533 262.806 80.9679 262.023 79.999 262.023C79.0302 262.023 78.2448 262.806 78.2448 263.772Z" fill="#BAE6FD"/>
<path d="M78.2452 275.985C78.2452 276.952 79.0306 277.735 79.9995 277.735C80.9683 277.735 81.7537 276.952 81.7537 275.985C81.7537 275.019 80.9683 274.236 79.9995 274.236C79.0306 274.236 78.2452 275.019 78.2452 275.985Z" fill="#BAE6FD"/>
<path d="M78.2452 288.205C78.2452 289.171 79.0306 289.955 79.9995 289.955C80.9683 289.955 81.7537 289.171 81.7537 288.205C81.7537 287.239 80.9683 286.456 79.9995 286.456C79.0306 286.456 78.2452 287.239 78.2452 288.205Z" fill="#BAE6FD"/>
<path d="M65.9913 263.772C65.9913 264.738 66.7767 265.521 67.7456 265.521C68.7144 265.521 69.4998 264.738 69.4998 263.772C69.4998 262.806 68.7144 262.022 67.7456 262.022C66.7767 262.022 65.9913 262.806 65.9913 263.772Z" fill="#BAE6FD"/>
<path d="M65.9913 275.985C65.9913 276.952 66.7767 277.735 67.7456 277.735C68.7144 277.735 69.4998 276.952 69.4998 275.985C69.4998 275.019 68.7144 274.236 67.7456 274.236C66.7767 274.236 65.9913 275.019 65.9913 275.985Z" fill="#BAE6FD"/>
<path d="M65.9913 288.205C65.9913 289.171 66.7767 289.955 67.7456 289.955C68.7144 289.955 69.4998 289.171 69.4998 288.205C69.4998 287.239 68.7144 286.456 67.7456 286.456C66.7767 286.456 65.9913 287.239 65.9913 288.205Z" fill="#BAE6FD"/>
<path d="M275.096 107.404C275.096 108.37 275.881 109.153 276.85 109.153C277.819 109.153 278.604 108.37 278.604 107.404C278.604 106.437 277.819 105.654 276.85 105.654C275.881 105.654 275.096 106.437 275.096 107.404Z" fill="#BAE6FD"/>
<path d="M262.842 107.404C262.842 108.371 263.627 109.154 264.596 109.154C265.565 109.154 266.35 108.371 266.35 107.404C266.35 106.438 265.565 105.655 264.596 105.655C263.627 105.655 262.842 106.438 262.842 107.404Z" fill="#BAE6FD"/>
<path d="M250.597 107.404C250.597 108.371 251.383 109.154 252.352 109.154C253.32 109.154 254.106 108.371 254.106 107.404C254.106 106.438 253.32 105.655 252.352 105.655C251.383 105.655 250.597 106.438 250.597 107.404Z" fill="#BAE6FD"/>
<path d="M238.343 107.404C238.343 108.371 239.129 109.154 240.098 109.154C241.066 109.154 241.852 108.371 241.852 107.404C241.852 106.438 241.066 105.655 240.098 105.655C239.129 105.655 238.343 106.438 238.343 107.404Z" fill="#BAE6FD"/>
<path d="M226.099 107.404C226.099 108.371 226.884 109.154 227.853 109.154C228.822 109.154 229.607 108.371 229.607 107.404C229.607 106.438 228.822 105.655 227.853 105.655C226.884 105.655 226.099 106.438 226.099 107.404Z" fill="#BAE6FD"/>
<path d="M213.845 107.404C213.845 108.371 214.63 109.154 215.599 109.154C216.568 109.154 217.354 108.371 217.354 107.404C217.354 106.438 216.568 105.655 215.599 105.655C214.63 105.655 213.845 106.438 213.845 107.404Z" fill="#BAE6FD"/>
<path d="M201.6 107.404C201.6 108.371 202.386 109.154 203.355 109.154C204.323 109.154 205.109 108.371 205.109 107.404C205.109 106.438 204.323 105.655 203.355 105.655C202.386 105.655 201.6 106.438 201.6 107.404Z" fill="#BAE6FD"/>
<path d="M275.096 95.183C275.096 96.1493 275.881 96.9326 276.85 96.9326C277.819 96.9326 278.604 96.1493 278.604 95.183C278.604 94.2168 277.819 93.4335 276.85 93.4335C275.881 93.4335 275.096 94.2168 275.096 95.183Z" fill="#BAE6FD"/>
<path d="M262.842 95.1831C262.842 96.1493 263.627 96.9326 264.596 96.9326C265.565 96.9326 266.35 96.1493 266.35 95.1831C266.35 94.2169 265.565 93.4336 264.596 93.4336C263.627 93.4336 262.842 94.2169 262.842 95.1831Z" fill="#BAE6FD"/>
<path d="M250.597 95.1831C250.597 96.1493 251.383 96.9326 252.352 96.9326C253.32 96.9326 254.106 96.1493 254.106 95.1831C254.106 94.2169 253.32 93.4336 252.352 93.4336C251.383 93.4336 250.597 94.2169 250.597 95.1831Z" fill="#BAE6FD"/>
<path d="M238.343 95.1831C238.343 96.1493 239.129 96.9326 240.098 96.9326C241.066 96.9326 241.852 96.1493 241.852 95.1831C241.852 94.2169 241.066 93.4336 240.098 93.4336C239.129 93.4336 238.343 94.2169 238.343 95.1831Z" fill="#BAE6FD"/>
<path d="M226.099 95.1831C226.099 96.1493 226.884 96.9326 227.853 96.9326C228.822 96.9326 229.607 96.1493 229.607 95.1831C229.607 94.2169 228.822 93.4336 227.853 93.4336C226.884 93.4336 226.099 94.2169 226.099 95.1831Z" fill="#BAE6FD"/>
<path d="M213.845 95.1831C213.845 96.1493 214.63 96.9326 215.599 96.9326C216.568 96.9326 217.354 96.1493 217.354 95.1831C217.354 94.2169 216.568 93.4336 215.599 93.4336C214.63 93.4336 213.845 94.2169 213.845 95.1831Z" fill="#BAE6FD"/>
<path d="M201.6 95.1831C201.6 96.1493 202.386 96.9326 203.355 96.9326C204.323 96.9326 205.109 96.1493 205.109 95.1831C205.109 94.2169 204.323 93.4336 203.355 93.4336C202.386 93.4336 201.6 94.2169 201.6 95.1831Z" fill="#BAE6FD"/>
<path d="M275.096 82.9707C275.096 83.9369 275.881 84.7202 276.85 84.7202C277.819 84.7202 278.604 83.9369 278.604 82.9707C278.604 82.0044 277.819 81.2212 276.85 81.2212C275.881 81.2212 275.096 82.0044 275.096 82.9707Z" fill="#BAE6FD"/>
<path d="M262.842 82.9707C262.842 83.9369 263.627 84.7202 264.596 84.7202C265.565 84.7202 266.35 83.9369 266.35 82.9707C266.35 82.0045 265.565 81.2212 264.596 81.2212C263.627 81.2212 262.842 82.0045 262.842 82.9707Z" fill="#BAE6FD"/>
<path d="M250.597 82.9707C250.597 83.9369 251.383 84.7202 252.352 84.7202C253.32 84.7202 254.106 83.9369 254.106 82.9707C254.106 82.0045 253.32 81.2212 252.352 81.2212C251.383 81.2212 250.597 82.0045 250.597 82.9707Z" fill="#BAE6FD"/>
<path d="M238.343 82.9707C238.343 83.9369 239.129 84.7202 240.098 84.7202C241.066 84.7202 241.852 83.9369 241.852 82.9707C241.852 82.0045 241.066 81.2212 240.098 81.2212C239.129 81.2212 238.343 82.0045 238.343 82.9707Z" fill="#BAE6FD"/>
<path d="M226.099 82.9707C226.099 83.9369 226.884 84.7202 227.853 84.7202C228.822 84.7202 229.607 83.9369 229.607 82.9707C229.607 82.0045 228.822 81.2212 227.853 81.2212C226.884 81.2212 226.099 82.0045 226.099 82.9707Z" fill="#BAE6FD"/>
<path d="M213.845 82.9707C213.845 83.9369 214.63 84.7202 215.599 84.7202C216.568 84.7202 217.354 83.9369 217.354 82.9707C217.354 82.0045 216.568 81.2212 215.599 81.2212C214.63 81.2212 213.845 82.0045 213.845 82.9707Z" fill="#BAE6FD"/>
<path d="M201.6 82.9707C201.6 83.9369 202.386 84.7202 203.355 84.7202C204.323 84.7202 205.109 83.9369 205.109 82.9707C205.109 82.0045 204.323 81.2212 203.355 81.2212C202.386 81.2212 201.6 82.0045 201.6 82.9707Z" fill="#BAE6FD"/>
<path d="M275.095 70.75C275.095 71.7162 275.88 72.4995 276.849 72.4995C277.818 72.4995 278.603 71.7162 278.603 70.75C278.603 69.7837 277.818 69.0005 276.849 69.0005C275.88 69.0005 275.095 69.7837 275.095 70.75Z" fill="#BAE6FD"/>
<path d="M262.842 70.7495C262.842 71.7157 263.627 72.499 264.596 72.499C265.565 72.499 266.35 71.7157 266.35 70.7495C266.35 69.7833 265.565 69 264.596 69C263.627 69 262.842 69.7833 262.842 70.7495Z" fill="#BAE6FD"/>
<path d="M250.597 70.7495C250.597 71.7157 251.383 72.499 252.352 72.499C253.32 72.499 254.106 71.7157 254.106 70.7495C254.106 69.7833 253.32 69 252.352 69C251.383 69 250.597 69.7833 250.597 70.7495Z" fill="#BAE6FD"/>
<path d="M238.343 70.7495C238.343 71.7157 239.129 72.499 240.098 72.499C241.066 72.499 241.852 71.7157 241.852 70.7495C241.852 69.7833 241.066 69 240.098 69C239.129 69 238.343 69.7833 238.343 70.7495Z" fill="#BAE6FD"/>
<path d="M226.099 70.7495C226.099 71.7157 226.884 72.499 227.853 72.499C228.822 72.499 229.607 71.7157 229.607 70.7495C229.607 69.7833 228.822 69 227.853 69C226.884 69 226.099 69.7833 226.099 70.7495Z" fill="#BAE6FD"/>
<path d="M213.845 70.7495C213.845 71.7157 214.63 72.499 215.599 72.499C216.568 72.499 217.354 71.7157 217.354 70.7495C217.354 69.7833 216.568 69 215.599 69C214.63 69 213.845 69.7833 213.845 70.7495Z" fill="#BAE6FD"/>
<path d="M201.6 70.7495C201.6 71.7157 202.386 72.499 203.355 72.499C204.323 72.499 205.109 71.7157 205.109 70.7495C205.109 69.7833 204.323 69 203.355 69C202.386 69 201.6 69.7833 201.6 70.7495Z" fill="#BAE6FD"/>
</svg>
