<svg width="375" height="350" viewBox="0 0 375 350" fill="none" xmlns="http://www.w3.org/2000/svg">
<rect width="375" height="350" fill="#F27C7C"/>
<path d="M297.631 296.361L291.972 301.965" stroke="#BAE6FD" stroke-width="3" stroke-miterlimit="10" stroke-linecap="round" stroke-linejoin="round"/>
<path d="M297.631 301.965L291.972 296.361" stroke="#BAE6FD" stroke-width="2" stroke-miterlimit="10" stroke-linecap="round" stroke-linejoin="round"/>
<path d="M67.0021 218.208L59.0001 218.208" stroke="#BAE6FD" stroke-width="2" stroke-miterlimit="10" stroke-linecap="round" stroke-linejoin="round"/>
<path d="M63.0021 222.181L63.0021 214.246" stroke="#BAE6FD" stroke-width="2" stroke-miterlimit="10" stroke-linecap="round" stroke-linejoin="round"/>
<path d="M229.002 120.962L221 120.962" stroke="#BAE6FD" stroke-width="2" stroke-miterlimit="10" stroke-linecap="round" stroke-linejoin="round"/>
<path d="M225.002 124.935L225.002 117" stroke="#BAE6FD" stroke-width="2" stroke-miterlimit="10" stroke-linecap="round" stroke-linejoin="round"/>
<path d="M301.863 109.633C299.183 109.633 297 107.48 297 104.816C297 102.162 299.174 99.9999 301.863 99.9999C304.543 99.9999 306.726 102.153 306.726 104.816C306.717 107.48 304.543 109.633 301.863 109.633Z" fill="#BAE6FD" stroke="#BAE6FD" stroke-width="2" stroke-miterlimit="10" stroke-linecap="round" stroke-linejoin="round"/>
<path d="M101.62 304C98.9407 304 96.7575 301.847 96.7575 299.184C96.7575 296.529 98.9313 294.367 101.62 294.367C104.3 294.367 106.484 296.52 106.484 299.184C106.474 301.847 104.3 304 101.62 304Z" fill="#BAE6FD" stroke="#BAE6FD" stroke-width="2" stroke-miterlimit="10" stroke-linecap="round" stroke-linejoin="round"/>
<path d="M107.947 102.897C107.947 103.861 108.736 104.642 109.708 104.642C110.681 104.642 111.47 103.861 111.47 102.897C111.47 101.934 110.681 101.153 109.708 101.153C108.736 101.153 107.947 101.934 107.947 102.897Z" fill="#BAE6FD"/>
<path d="M107.947 115.071C107.947 116.035 108.736 116.816 109.708 116.816C110.681 116.816 111.47 116.035 111.47 115.071C111.47 114.108 110.681 113.327 109.708 113.327C108.736 113.327 107.947 114.108 107.947 115.071Z" fill="#BAE6FD"/>
<path d="M107.947 127.256C107.947 128.22 108.736 129.001 109.708 129.001C110.681 129.001 111.47 128.22 111.47 127.256C111.47 126.293 110.681 125.512 109.708 125.512C108.736 125.512 107.947 126.293 107.947 127.256Z" fill="#BAE6FD"/>
<path d="M107.947 139.431C107.947 140.395 108.736 141.176 109.708 141.176C110.681 141.176 111.47 140.395 111.47 139.431C111.47 138.468 110.681 137.687 109.708 137.687C108.736 137.687 107.947 138.468 107.947 139.431Z" fill="#BAE6FD"/>
<path d="M107.947 151.615C107.947 152.579 108.736 153.36 109.708 153.36C110.681 153.36 111.47 152.579 111.47 151.615C111.47 150.652 110.681 149.871 109.708 149.871C108.736 149.871 107.947 150.652 107.947 151.615Z" fill="#BAE6FD"/>
<path d="M95.6536 102.897C95.6536 103.861 96.4422 104.642 97.4149 104.642C98.3876 104.642 99.1761 103.861 99.1761 102.897C99.1761 101.934 98.3876 101.153 97.4149 101.153C96.4422 101.153 95.6536 101.934 95.6536 102.897Z" fill="#BAE6FD"/>
<path d="M95.6536 115.072C95.6536 116.035 96.4422 116.816 97.4149 116.816C98.3876 116.816 99.1761 116.035 99.1761 115.072C99.1761 114.108 98.3876 113.327 97.4149 113.327C96.4422 113.327 95.6536 114.108 95.6536 115.072Z" fill="#BAE6FD"/>
<path d="M95.6536 127.256C95.6536 128.22 96.4422 129.001 97.4149 129.001C98.3876 129.001 99.1761 128.22 99.1761 127.256C99.1761 126.293 98.3876 125.512 97.4149 125.512C96.4422 125.512 95.6536 126.293 95.6536 127.256Z" fill="#BAE6FD"/>
<path d="M95.6536 139.431C95.6536 140.394 96.4422 141.175 97.4149 141.175C98.3876 141.175 99.1761 140.394 99.1761 139.431C99.1761 138.468 98.3876 137.687 97.4149 137.687C96.4422 137.687 95.6536 138.468 95.6536 139.431Z" fill="#BAE6FD"/>
<path d="M95.6536 151.615C95.6536 152.578 96.4422 153.359 97.4149 153.359C98.3876 153.359 99.1761 152.578 99.1761 151.615C99.1761 150.652 98.3876 149.871 97.4149 149.871C96.4422 149.871 95.6536 150.652 95.6536 151.615Z" fill="#BAE6FD"/>
<path d="M83.3509 102.897C83.3509 103.861 84.1394 104.642 85.1122 104.642C86.0849 104.642 86.8734 103.861 86.8734 102.897C86.8734 101.934 86.0849 101.153 85.1122 101.153C84.1394 101.153 83.3509 101.934 83.3509 102.897Z" fill="#BAE6FD"/>
<path d="M83.3509 115.072C83.3509 116.035 84.1394 116.816 85.1122 116.816C86.0849 116.816 86.8734 116.035 86.8734 115.072C86.8734 114.108 86.0849 113.327 85.1122 113.327C84.1394 113.327 83.3509 114.108 83.3509 115.072Z" fill="#BAE6FD"/>
<path d="M83.3509 127.256C83.3509 128.22 84.1394 129.001 85.1122 129.001C86.0849 129.001 86.8734 128.22 86.8734 127.256C86.8734 126.293 86.0849 125.512 85.1122 125.512C84.1394 125.512 83.3509 126.293 83.3509 127.256Z" fill="#BAE6FD"/>
<path d="M83.3509 139.431C83.3509 140.394 84.1394 141.175 85.1122 141.175C86.0849 141.175 86.8734 140.394 86.8734 139.431C86.8734 138.468 86.0849 137.687 85.1122 137.687C84.1394 137.687 83.3509 138.468 83.3509 139.431Z" fill="#BAE6FD"/>
<path d="M83.3509 151.615C83.3509 152.578 84.1394 153.359 85.1122 153.359C86.0849 153.359 86.8734 152.578 86.8734 151.615C86.8734 150.652 86.0849 149.871 85.1122 149.871C84.1394 149.871 83.3509 150.652 83.3509 151.615Z" fill="#BAE6FD"/>
<path d="M71.0576 102.897C71.0576 103.861 71.8461 104.642 72.8188 104.642C73.7915 104.642 74.5801 103.861 74.5801 102.897C74.5801 101.934 73.7915 101.153 72.8188 101.153C71.8461 101.153 71.0576 101.934 71.0576 102.897Z" fill="#BAE6FD"/>
<path d="M71.0576 115.072C71.0576 116.035 71.8461 116.816 72.8188 116.816C73.7915 116.816 74.5801 116.035 74.5801 115.072C74.5801 114.108 73.7915 113.327 72.8188 113.327C71.8461 113.327 71.0576 114.108 71.0576 115.072Z" fill="#BAE6FD"/>
<path d="M71.0576 127.256C71.0576 128.22 71.8461 129.001 72.8188 129.001C73.7915 129.001 74.5801 128.22 74.5801 127.256C74.5801 126.293 73.7915 125.512 72.8188 125.512C71.8461 125.512 71.0576 126.293 71.0576 127.256Z" fill="#BAE6FD"/>
<path d="M71.0576 139.431C71.0576 140.394 71.8461 141.175 72.8188 141.175C73.7915 141.175 74.5801 140.394 74.5801 139.431C74.5801 138.468 73.7915 137.687 72.8188 137.687C71.8461 137.687 71.0576 138.468 71.0576 139.431Z" fill="#BAE6FD"/>
<path d="M71.0576 151.615C71.0576 152.578 71.8461 153.359 72.8188 153.359C73.7915 153.359 74.5801 152.578 74.5801 151.615C74.5801 150.652 73.7915 149.871 72.8188 149.871C71.8461 149.871 71.0576 150.652 71.0576 151.615Z" fill="#BAE6FD"/>
<path d="M313.477 205.703C313.477 206.667 314.266 207.448 315.239 207.448C316.211 207.448 317 206.667 317 205.703C317 204.74 316.211 203.959 315.239 203.959C314.266 203.959 313.477 204.74 313.477 205.703Z" fill="#BAE6FD"/>
<path d="M313.477 217.878C313.477 218.841 314.266 219.622 315.239 219.622C316.211 219.622 317 218.841 317 217.878C317 216.915 316.211 216.133 315.239 216.133C314.266 216.133 313.477 216.914 313.477 217.878Z" fill="#BAE6FD"/>
<path d="M313.477 230.062C313.477 231.025 314.266 231.806 315.239 231.806C316.211 231.806 317 231.025 317 230.062C317 229.099 316.211 228.318 315.239 228.318C314.266 228.318 313.477 229.099 313.477 230.062Z" fill="#BAE6FD"/>
<path d="M301.175 205.703C301.175 206.666 301.963 207.447 302.936 207.447C303.909 207.447 304.697 206.666 304.697 205.703C304.697 204.74 303.909 203.959 302.936 203.959C301.963 203.959 301.175 204.74 301.175 205.703Z" fill="#BAE6FD"/>
<path d="M301.175 217.878C301.175 218.841 301.963 219.622 302.936 219.622C303.909 219.622 304.697 218.841 304.697 217.878C304.697 216.914 303.909 216.133 302.936 216.133C301.963 216.133 301.175 216.914 301.175 217.878Z" fill="#BAE6FD"/>
<path d="M301.175 230.062C301.175 231.026 301.963 231.807 302.936 231.807C303.909 231.807 304.697 231.026 304.697 230.062C304.697 229.099 303.909 228.318 302.936 228.318C301.963 228.318 301.175 229.099 301.175 230.062Z" fill="#BAE6FD"/>
<path d="M228.25 168.75H145.75C141.608 168.75 138.25 172.108 138.25 176.25V225C138.25 229.142 141.608 232.5 145.75 232.5H228.25C232.392 232.5 235.75 229.142 235.75 225V176.25C235.75 172.108 232.392 168.75 228.25 168.75Z" stroke="white" stroke-width="6" stroke-linejoin="round"/>
<path d="M187 247.5V232.5" stroke="white" stroke-width="6" stroke-linecap="round" stroke-linejoin="round"/>
<path d="M187 168.75V161.25" stroke="white" stroke-width="6" stroke-linecap="round" stroke-linejoin="round"/>
<path d="M220.75 258.75L213.25 232.5" stroke="white" stroke-width="6" stroke-linecap="round" stroke-linejoin="round"/>
<path d="M153.25 258.75L160.75 232.5" stroke="white" stroke-width="6" stroke-linecap="round" stroke-linejoin="round"/>
</svg>
