<svg width="149" height="53" viewBox="0 0 149 53" fill="none" xmlns="http://www.w3.org/2000/svg">
<path d="M4.728 38C4.104 38 3.528 37.848 3 37.544C2.472 37.224 2.056 36.808 1.752 36.296C1.448 35.768 1.296 35.184 1.296 34.544V33.08H4.752V34.376C4.752 34.424 4.76 34.464 4.776 34.496C4.808 34.512 4.84 34.52 4.872 34.52H14.928C14.96 34.52 14.992 34.512 15.024 34.496C15.056 34.464 15.072 34.424 15.072 34.376V31.232C15.072 31.2 15.056 31.176 15.024 31.16C14.992 31.128 14.96 31.112 14.928 31.112H4.728C4.104 31.112 3.528 30.96 3 30.656C2.472 30.336 2.056 29.912 1.752 29.384C1.448 28.856 1.296 28.28 1.296 27.656V24.176C1.296 23.536 1.448 22.96 1.752 22.448C2.056 21.92 2.472 21.504 3 21.2C3.528 20.88 4.104 20.72 4.728 20.72H15.12C15.744 20.72 16.312 20.88 16.824 21.2C17.352 21.504 17.776 21.92 18.096 22.448C18.416 22.96 18.576 23.536 18.576 24.176V25.64H15.072V24.344C15.072 24.296 15.056 24.264 15.024 24.248C14.992 24.216 14.96 24.2 14.928 24.2H4.872C4.84 24.2 4.808 24.216 4.776 24.248C4.76 24.264 4.752 24.296 4.752 24.344V27.488C4.752 27.52 4.76 27.552 4.776 27.584C4.808 27.6 4.84 27.608 4.872 27.608H15.12C15.744 27.608 16.312 27.768 16.824 28.088C17.352 28.392 17.776 28.808 18.096 29.336C18.416 29.864 18.576 30.44 18.576 31.064V34.544C18.576 35.184 18.416 35.768 18.096 36.296C17.776 36.808 17.352 37.224 16.824 37.544C16.312 37.848 15.744 38 15.12 38H4.728ZM21.1476 38V19.52H24.5556V29.312H26.7396L31.5636 24.08H35.0916V25.136L29.7396 31.04L35.0916 36.944V38H31.5636L26.7396 32.768H24.5556V38H21.1476ZM36.8261 38V24.08H40.2341V38H36.8261ZM36.8261 22.952V19.52H40.2341V22.952H36.8261ZM46.2336 38C45.6256 38 45.0656 37.848 44.5536 37.544C44.0416 37.224 43.6256 36.808 43.3056 36.296C43.0016 35.784 42.8496 35.224 42.8496 34.616V19.496H46.2816V34.448C46.2816 34.48 46.2976 34.512 46.3296 34.544C46.3616 34.576 46.3936 34.592 46.4256 34.592H49.1616V38H46.2336ZM54.4133 38C53.8053 38 53.2453 37.848 52.7333 37.544C52.2213 37.224 51.8053 36.808 51.4853 36.296C51.1813 35.784 51.0293 35.224 51.0293 34.616V19.496H54.4613V34.448C54.4613 34.48 54.4773 34.512 54.5093 34.544C54.5413 34.576 54.5733 34.592 54.6053 34.592H57.3413V38H54.4133ZM62.286 38C61.678 38 61.118 37.848 60.606 37.544C60.094 37.224 59.678 36.808 59.358 36.296C59.054 35.784 58.902 35.224 58.902 34.616V33.992H62.31V34.448C62.31 34.48 62.326 34.512 62.358 34.544C62.39 34.576 62.422 34.592 62.454 34.592H69.462C69.494 34.592 69.526 34.576 69.558 34.544C69.59 34.512 69.606 34.48 69.606 34.448V32.888C69.606 32.856 69.59 32.832 69.558 32.816C69.526 32.784 69.494 32.768 69.462 32.768H62.286C61.678 32.768 61.118 32.616 60.606 32.312C60.094 31.992 59.678 31.576 59.358 31.064C59.054 30.552 58.902 29.984 58.902 29.36V27.464C58.902 26.856 59.054 26.296 59.358 25.784C59.678 25.272 60.094 24.864 60.606 24.56C61.118 24.24 61.678 24.08 62.286 24.08H69.63C70.254 24.08 70.822 24.24 71.334 24.56C71.846 24.864 72.254 25.272 72.558 25.784C72.878 26.296 73.038 26.856 73.038 27.464V28.088H69.606V27.632C69.606 27.6 69.59 27.568 69.558 27.536C69.526 27.504 69.494 27.488 69.462 27.488H62.454C62.422 27.488 62.39 27.504 62.358 27.536C62.326 27.568 62.31 27.6 62.31 27.632V29.192C62.31 29.224 62.326 29.256 62.358 29.288C62.39 29.304 62.422 29.312 62.454 29.312H69.63C70.254 29.312 70.822 29.472 71.334 29.792C71.846 30.096 72.254 30.504 72.558 31.016C72.878 31.528 73.038 32.096 73.038 32.72V34.616C73.038 35.224 72.878 35.784 72.558 36.296C72.254 36.808 71.846 37.224 71.334 37.544C70.822 37.848 70.254 38 69.63 38H62.286ZM75.4991 38V19.52H78.9071V24.08H86.2271C86.8351 24.08 87.3951 24.24 87.9071 24.56C88.4191 24.864 88.8271 25.272 89.1311 25.784C89.4511 26.296 89.6111 26.856 89.6111 27.464V38H86.2031V27.632C86.2031 27.6 86.1871 27.568 86.1551 27.536C86.1391 27.504 86.1071 27.488 86.0591 27.488H79.0511C79.0191 27.488 78.9871 27.504 78.9551 27.536C78.9231 27.568 78.9071 27.6 78.9071 27.632V38H75.4991ZM94.8898 38C94.2818 38 93.7138 37.848 93.1858 37.544C92.6738 37.224 92.2658 36.808 91.9618 36.296C91.6578 35.784 91.5058 35.224 91.5058 34.616V29.312H102.21V27.632C102.21 27.6 102.194 27.568 102.162 27.536C102.13 27.504 102.098 27.488 102.066 27.488H91.5058V24.08H102.234C102.858 24.08 103.426 24.24 103.938 24.56C104.45 24.864 104.858 25.272 105.162 25.784C105.466 26.296 105.618 26.856 105.618 27.464V38H94.8898ZM95.0578 34.592H102.21V32.36H94.9138V34.448C94.9138 34.48 94.9298 34.512 94.9618 34.544C94.9938 34.576 95.0258 34.592 95.0578 34.592ZM107.607 38V27.464C107.607 26.856 107.759 26.296 108.063 25.784C108.383 25.272 108.799 24.864 109.311 24.56C109.839 24.24 110.407 24.08 111.015 24.08H118.719V27.488H111.159C111.127 27.488 111.095 27.504 111.063 27.536C111.031 27.568 111.015 27.6 111.015 27.632V38H107.607ZM123.764 38C123.156 38 122.596 37.848 122.084 37.544C121.572 37.224 121.156 36.808 120.836 36.296C120.532 35.784 120.38 35.224 120.38 34.616V27.464C120.38 26.856 120.532 26.296 120.836 25.784C121.156 25.272 121.572 24.864 122.084 24.56C122.596 24.24 123.156 24.08 123.764 24.08H131.108C131.732 24.08 132.3 24.24 132.812 24.56C133.324 24.864 133.732 25.272 134.036 25.784C134.34 26.296 134.492 26.856 134.492 27.464V32.768H123.788V34.448C123.788 34.48 123.804 34.512 123.836 34.544C123.868 34.576 123.9 34.592 123.932 34.592H134.492V38H123.764ZM123.788 29.72H131.084V27.632C131.084 27.6 131.068 27.568 131.036 27.536C131.004 27.504 130.972 27.488 130.94 27.488H123.932C123.9 27.488 123.868 27.504 123.836 27.536C123.804 27.568 123.788 27.6 123.788 27.632V29.72Z" fill="white"/>
</svg>
