<svg width="20" height="21" viewBox="0 0 20 21" fill="none" xmlns="http://www.w3.org/2000/svg">
<g clip-path="url(#clip0_57446_201)">
<path d="M10.0025 0.572266H9.9975C4.48375 0.572266 0 5.05727 0 10.5723C0 12.7598 0.705 14.7873 1.90375 16.4335L0.6575 20.1485L4.50125 18.9198C6.0825 19.9673 7.96875 20.5723 10.0025 20.5723C15.5162 20.5723 20 16.086 20 10.5723C20 5.05852 15.5162 0.572266 10.0025 0.572266Z" fill="#4CAF50"/>
<path d="M15.8211 14.6935C15.5798 15.3747 14.6223 15.9397 13.8586 16.1047C13.3361 16.216 12.6536 16.3047 10.3561 15.3522C7.41732 14.1347 5.52482 11.1485 5.37732 10.9547C5.23607 10.761 4.18982 9.3735 4.18982 7.9385C4.18982 6.5035 4.91857 5.80475 5.21232 5.50475C5.45357 5.2585 5.85232 5.146 6.23482 5.146C6.35857 5.146 6.46982 5.15225 6.56982 5.15725C6.86357 5.16975 7.01107 5.18725 7.20482 5.651C7.44607 6.23225 8.03357 7.66725 8.10357 7.81475C8.17482 7.96225 8.24607 8.16225 8.14607 8.356C8.05232 8.556 7.96982 8.64475 7.82232 8.81475C7.67482 8.98475 7.53482 9.11475 7.38732 9.29725C7.25232 9.456 7.09982 9.626 7.26982 9.91975C7.43982 10.2072 8.02732 11.166 8.89232 11.936C10.0086 12.9297 10.9136 13.2472 11.2373 13.3822C11.4786 13.4822 11.7661 13.4585 11.9423 13.271C12.1661 13.0297 12.4423 12.6297 12.7236 12.236C12.9236 11.9535 13.1761 11.9185 13.4411 12.0185C13.7111 12.1122 15.1398 12.8185 15.4336 12.9647C15.7273 13.1122 15.9211 13.1822 15.9923 13.306C16.0623 13.4297 16.0623 14.011 15.8211 14.6935Z" fill="#FAFAFA"/>
</g>
<defs>
<clipPath id="clip0_57446_201">
<rect width="20" height="20" fill="white" transform="translate(0 0.572266)"/>
</clipPath>
</defs>
</svg>
